<svg xmlns="http://www.w3.org/2000/svg" viewBox="0 0 231.74 232.09"><g id="Layer_2" data-name="Layer 2"><g id="Layer_1-2" data-name="Layer 1"><path d="M116.21,232.09C60.21,232.09,0,195.64,0,115.18,0,47.45,47.79,0,116.21,0c57.45,0,115.53,39.88,115.53,116.56C231.74,196,171.91,232.09,116.21,232.09Zm-67-202.52c-15.13,15.47-23,39.54-22,67.05C29.62,157.13,69.16,222.8,130,222.8c22,0,40.57-7.22,53.63-20.63C198.44,187.39,206,164.35,205,137.88,202.86,75.64,163.32,8.6,102.8,8.6c-21.66,0-40.22,7.22-53.63,21Z"/></g></g></svg>