<?xml version="1.0" encoding="utf-8"?>
<!-- Generator: Adobe Illustrator 26.1.0, SVG Export Plug-In . SVG Version: 6.00 Build 0)  -->
<svg version="1.1" id="Layer_1" xmlns="http://www.w3.org/2000/svg" xmlns:xlink="http://www.w3.org/1999/xlink" x="0px" y="0px"
	 viewBox="0 0 612 792" style="enable-background:new 0 0 612 792;" xml:space="preserve">
<g>
	<path d="M0,281.7h21l128.6,171.9c0.3,0.3,1,0.7,1.4,0.7c0.7,0,1-0.3,1.7-0.7c0-0.3,0.3-0.7,0.3-1.4l-0.3-170.5h8.6v227.3h-5.2
		L11.7,318.8c-0.3-0.7-1-1-1.4-1c-1,0-2.1,0.7-2.1,2.1L7.9,509.6H0C0,509.6,0,281.7,0,281.7z"/>
	<path d="M302.6,512c-56,0-116.2-36.4-116.2-116.9c0-67.7,47.8-115.2,116.2-115.2c57.4,0,115.5,39.9,115.5,116.6
		C418.1,475.9,358.3,512,302.6,512z M235.5,309.5c-15.1,15.5-23,39.5-22,67c2.4,60.5,41.9,126.2,102.8,126.2
		c22,0,40.6-7.2,53.6-20.6c14.8-14.8,22.3-37.8,21.3-64.3c-2.1-62.2-41.6-129.3-102.1-129.3C267.5,288.6,248.9,295.8,235.5,309.5z"
		/>
	<path d="M413.6,509.6l92.8-228h10.7l94.9,228h-27.2c-1.7,0-3.4-1.4-4.1-3.1l-34.4-81.1c-0.3-0.7-1-1-1.7-1h-87.7
		c-0.7,0-1.4,0.3-1.7,1l-34.7,84.2H413.6z M499.9,315.7c0,0-0.3,0-0.7,0.3l-40.9,100.7l82.9,0.7l-40.6-101.4L499.9,315.7z"/>
</g>
</svg>
