<?xml version="1.0" encoding="utf-8"?>
<!-- Generator: Adobe Illustrator 26.1.0, SVG Export Plug-In . SVG Version: 6.00 Build 0)  -->
<svg version="1.1" id="Layer_1" xmlns="http://www.w3.org/2000/svg" xmlns:xlink="http://www.w3.org/1999/xlink" x="0px" y="0px"
	 viewBox="0 0 612 232.1" style="enable-background:new 0 0 612 232.1;" xml:space="preserve">
<path d="M0,1.7h21l128.6,171.9c0.4,0.4,0.9,0.6,1.4,0.7c0.7,0,1-0.3,1.7-0.7c0-0.3,0.3-0.7,0.3-1.4L152.7,1.7h8.6V229h-5.2
	L11.7,38.8c-0.3-0.5-0.8-0.9-1.4-1c-1.1,0-2,0.8-2.1,1.9c0,0,0,0.1,0,0.1L7.9,229.7H0V1.7z"/>
<path d="M302.5,232.1c-56,0-116.2-36.4-116.2-116.9C186.3,47.5,234.1,0,302.5,0C360,0,418.1,39.9,418.1,116.6
	C418.1,196,358.2,232.1,302.5,232.1z M235.5,29.6c-15.1,15.5-23,39.5-22,67.1c2.4,60.5,41.9,126.2,102.8,126.2
	c22,0,40.6-7.2,53.6-20.6c14.8-14.8,22.4-37.8,21.3-64.3C389.2,75.6,349.7,8.6,289.1,8.6C267.5,8.6,248.9,15.8,235.5,29.6
	L235.5,29.6z"/>
<path d="M413.6,229.7l92.8-228h10.7l94.9,228h-27.2c-1.9-0.1-3.5-1.4-4.1-3.1l-34.4-81.1c-0.3-0.6-1-1-1.7-1h-87.7
	c-0.7,0-1.4,0.4-1.7,1l-34.7,84.2H413.6z M499.9,35.8c-0.3,0-0.5,0.1-0.7,0.3l-40.9,100.7l82.9,0.7L500.6,36.1L499.9,35.8z"/>
</svg>
